<?xml version="1.0" encoding="UTF-8" standalone="no"?>
<!-- Created with Inkscape (http://www.inkscape.org/) -->

<svg
   width="210mm"
   height="210mm"
   viewBox="0 0 210 210"
   version="1.1"
   id="svg1"
   inkscape:version="1.3.2 (091e20e, 2023-11-25, custom)"
   sodipodi:docname="logoMaybe.svg"
   xmlns:inkscape="http://www.inkscape.org/namespaces/inkscape"
   xmlns:sodipodi="http://sodipodi.sourceforge.net/DTD/sodipodi-0.dtd"
   xmlns="http://www.w3.org/2000/svg"
   xmlns:svg="http://www.w3.org/2000/svg">
  <sodipodi:namedview
     id="namedview1"
     pagecolor="#ffffff"
     bordercolor="#000000"
     borderopacity="0.25"
     inkscape:showpageshadow="2"
     inkscape:pageopacity="0.0"
     inkscape:pagecheckerboard="0"
     inkscape:deskcolor="#d1d1d1"
     inkscape:document-units="mm"
     inkscape:zoom="0.16031672"
     inkscape:cx="-555.15107"
     inkscape:cy="888.86548"
     inkscape:window-width="1366"
     inkscape:window-height="705"
     inkscape:window-x="-8"
     inkscape:window-y="-8"
     inkscape:window-maximized="1"
     inkscape:current-layer="layer2" />
  <defs
     id="defs1">
    <inkscape:path-effect
       effect="spiro"
       id="path-effect6"
       is_visible="true"
       lpeversion="1" />
    <inkscape:path-effect
       effect="spiro"
       id="path-effect5"
       is_visible="true"
       lpeversion="1" />
    <inkscape:path-effect
       effect="spiro"
       id="path-effect4"
       is_visible="true"
       lpeversion="1" />
    <inkscape:path-effect
       effect="spiro"
       id="path-effect3"
       is_visible="true"
       lpeversion="1" />
  </defs>
  <g
     inkscape:groupmode="layer"
     id="layer2"
     inkscape:label="Warstwa 2"
     style="fill:#ccaaff">
    <path
       style="fill:#ccaaff;fill-opacity:1;stroke:#000000;stroke-width:1.37513;stroke-opacity:0"
       id="path7"
       d="m 173.51679,79.104148 c 0.17635,0.678661 0.36111,1.249858 0.34639,1.988171 -0.0336,1.689029 -0.50263,2.88319 -1.24742,4.433968 -1.70281,3.54552 -3.18311,5.32165 -5.50911,8.679965 -5.79411,7.237708 -12.03017,14.137218 -18.98084,20.069028 -3.58667,3.06091 -4.4542,3.51865 -8.16157,6.05519 -2.68082,1.681 -5.41993,3.2693 -8.39798,4.22948 -0.71733,0.23129 -1.44078,0.462 -2.18207,0.57135 -1.96748,0.29026 -3.72677,0.0955 -5.70285,-0.005 -4.89443,-0.45501 -9.68758,-1.66418 -14.52633,-2.52521 -3.26412,-0.58139 -6.57399,-0.64995 -9.872971,-0.69084 -3.347293,0.14265 -6.482084,1.48091 -9.494972,2.97342 -2.998705,1.33516 -6.024837,2.60999 -9.07572,3.79865 -3.523422,1.32346 -6.865044,3.09943 -10.153859,4.99003 -2.50724,1.63268 -4.998502,3.30667 -7.269638,5.31797 -0.725346,0.64236 -2.445876,2.31526 -3.160323,3.0042 -1.155988,1.26044 -2.382335,2.44958 -3.505233,3.74649 -0.972584,1.12329 -1.855471,2.33881 -2.811258,3.48001 -2.090744,2.36875 -4.576976,4.26627 -6.671456,6.62724 -1.386951,1.66511 -1.550723,3.76398 -1.694106,5.90205 -0.177312,1.7934 -0.322665,3.58211 -0.363352,5.38553 -0.06531,2.22127 0.402093,4.55864 1.453231,6.48652 0.272837,0.50038 0.615636,0.95132 0.923457,1.42699 3.405393,4.49848 7.098107,6.18666 11.866923,9.03056 3.25727,1.0284 6.621988,1.96748 10.03675,2.02207 2.312939,0.0369 4.205623,-0.27862 6.50702,-0.55928 3.211462,-0.54683 6.434139,-1.10211 9.586567,-1.98328 3.435484,-0.96029 6.803593,-2.2682 10.180495,-3.44044 6.277985,-2.03693 12.326395,-4.81451 18.575765,-6.94287 1.18682,-0.4042 2.38809,-0.75608 3.58211,-1.13413 6.60639,-1.99174 13.40162,-2.99641 20.23313,-3.38785 3.50598,-0.0639 7.01696,0.21936 10.39004,1.32061 1.68202,0.54914 2.71201,1.07065 4.32155,1.80328 1.73944,0.7933 3.42454,1.74281 5.26711,2.23472 2.21805,0.59217 4.51201,0.68957 6.7791,0.84763 3.10355,-0.0872 8.25733,-0.023 10.76337,-2.38209 0.41555,-0.3912 0.70566,-0.91719 1.05849,-1.37578 0.60178,-1.60791 1.13149,-2.43261 0.83844,-4.3021 -0.16321,-1.04104 -0.56149,-2.0288 -0.96787,-2.98749 -1.22329,-2.88567 -3.06268,-5.1457 -5.0165,-7.44219 -3.05623,-3.06518 -6.81912,-5.433 -10.87867,-6.45822 -2.92629,-0.739 -5.90788,-0.87055 -8.89424,-0.97069 -6.88809,0.18042 -13.73874,1.25852 -20.5139,2.57053 -6.19871,1.44484 -12.30994,3.273 -18.2727,5.61428 -3.6007,1.34249 -7.29804,2.35016 -10.86238,3.81224 -1.84322,0.75608 -3.659057,1.58948 -5.495851,2.36393 -4.104802,1.71766 -8.401529,2.78256 -12.816325,2.20042 -3.37569,-0.44511 -4.238673,-0.97415 -7.463061,-2.17256 -1.321093,-0.83887 -2.741151,-1.51513 -3.96327,-2.51657 -0.190281,-0.15593 0.104651,-0.58392 -0.05521,-0.77621 -1.129677,-1.3589 -2.522858,-2.43139 -3.700246,-3.74129 -3.832778,-4.26403 -6.980571,-9.18643 -10.222025,-13.97362 -3.90522,-6.03776 -8.408334,-11.55104 -13.58932,-16.31475 -2.960125,-2.72171 -3.900794,-3.35997 -7.051978,-5.83473 -5.13793,-3.70635 -9.94966,-7.90773 -14.269992,-12.7008 -3.032241,-3.36402 -3.657982,-4.31998 -6.429843,-7.921338 -3.212472,-4.601675 -6.576867,-9.831009 -7.6293318,-15.633153 -0.5748436,-3.169057 -0.2612924,-4.010707 0.083621,-7.109704 0.5850648,-1.991573 0.7707028,-3.648772 2.3183628,-5.092451 1.876408,-1.75034 4.13931,-1.997444 6.535898,-1.944133 4.813472,0.107068 7.558311,1.255612 12.317721,2.600855 6.473824,2.267824 12.836311,4.932746 19.006041,8.052949 3.02197,1.528293 6.504206,3.356917 9.247965,5.436058 2.761724,1.603894 5.476205,3.308477 8.285178,4.811681 1.41705,0.758328 2.906592,1.345293 4.379067,1.965529 3.960919,1.668401 8.004198,3.012253 12.140659,4.041026 1.625177,0.385643 3.298131,0.580801 4.903978,1.067632 0.735963,0.223116 1.456796,0.502084 2.18931,0.738286 1.616324,0.488177 3.226801,1.021211 4.875098,1.371864 0.512362,0.108996 1.024849,0.291269 1.546489,0.269199 1.389744,-0.0588 2.140996,-0.661452 3.345445,-1.325665 0.59538,-0.506169 1.21901,-0.975143 1.78616,-1.518496 0.65979,-0.632142 1.27092,-1.322605 1.88923,-2.002802 2.54072,-2.795041 4.83003,-5.793603 7.07086,-8.872947 2.47542,-3.31804 4.50168,-7.008938 7.13361,-10.189884 0.6446,-0.779073 1.28175,-1.575273 2.01755,-2.251508 0.77186,-0.709349 1.6569,-1.257842 2.48533,-1.886753 1.24657,-0.56706 2.45243,-1.255089 3.73968,-1.701176 4.53438,-1.571385 9.87995,-2.482131 14.48683,-3.24289 3.48514,-0.57552 6.98375,-1.049996 10.47925,-1.545062 2.40234,-0.340246 17.9499,-2.43345 20.75393,-2.811646 6.50838,-0.974053 13.05029,-1.761735 19.47749,-3.283697 2.70624,-0.640842 5.36253,-1.499964 8.01792,-2.348554 1.0905,-0.469853 3.26577,-0.607133 3.96786,-1.841672 0.51411,-0.904049 0.35526,-1.708548 0.36916,-2.747281 -0.16429,-0.829476 -0.23891,-1.686273 -0.49289,-2.488425 -0.39079,-1.234293 -0.89585,-2.425119 -1.43238,-3.592527 -0.65313,-1.421089 -1.32751,-2.838042 -2.13222,-4.1635 -1.89377,-3.119344 -4.31407,-6.109807 -6.70985,-8.771593 -1.13365,-1.259556 -2.35171,-2.425399 -3.52759,-3.638096 -4.49973,-3.87016 -4.92314,-4.690237 -11.80006,-7.205179 -1.63431,-0.597678 -3.41335,-0.581276 -5.13551,-0.663131 -5.2515,-0.249596 -10.39037,0.783626 -15.5183,1.828607 -6.12537,1.320404 -11.72401,3.860482 -16.96191,7.550489 -1.00227,0.70607 -1.95781,1.488017 -2.93669,2.232025 -4.75259,4.008546 -7.80029,9.69942 -10.95586,15.147869 -4.55286,7.861024 -1.20791,2.016804 -5.70973,9.930183 -2.5706,4.460932 -5.04504,8.987439 -7.62439,13.442426 -0.55869,0.964972 -2.70297,4.661798 -3.52029,5.690233 -0.56145,0.70647 -1.2522,1.277238 -1.87829,1.915861 -3.04285,2.673391 -6.76827,3.930615 -10.378123,5.362929 -2.87182,1.139471 -3.306045,1.363803 -6.114274,2.606586 -2.4661,1.021185 -4.884172,2.353764 -7.517731,2.817056 -3.153995,0.554848 -5.990397,0.164688 -9.111831,-0.286643 -3.158,-0.520615 -6.149173,-1.658433 -8.972992,-3.27358 -1.04752,-0.599144 -2.101383,-1.20208 -3.06514,-1.949897 -0.287687,-0.223209 0.672226,0.235984 1.008341,0.353952 -1.009756,-0.782306 -2.01951,-1.564619 -3.029267,-2.346923 -1.102237,-0.839567 -2.20552,-1.677515 -3.306717,-2.518705 -2.214033,-1.691282 -4.181793,-3.239847 -6.445453,-4.847028 -4.276194,-3.036072 -8.721503,-5.776498 -13.251971,-8.331534 -2.575021,-1.229775 -5.832533,-3.402197 -8.711296,-3.584921 -0.575008,-0.03649 -1.229612,-0.158596 -1.720971,0.169041 -0.713755,0.475948 -1.093134,1.381285 -1.639699,2.071926 -0.480417,1.224433 -1.036984,2.416589 -1.441254,3.673294 -0.920933,2.862789 -1.739092,6.740737 -2.218671,9.70476 -0.414731,2.563235 -0.853822,6.295938 -0.822598,8.9598 0.01361,1.158636 0.200958,2.307077 0.301435,3.460617 0.3472,0.981744 0.495618,2.077608 1.041601,2.945243 2.154033,3.423008 8.014644,6.168448 10.50959,7.418838 1.564272,0.784 3.261997,1.20543 4.914252,1.73292 3.970033,1.26745 6.312021,1.7753 10.313927,2.76168 3.778367,0.78834 7.769056,2.09843 11.622428,0.88867 1.044053,-0.32777 2.092669,-0.77802 2.95609,-1.49702 2.043437,-1.70166 3.107607,-4.22438 4.355742,-6.555085 0.997059,-2.65079 3.018538,-7.015655 1.102464,-9.855388 -0.722837,-1.071283 -1.834338,-1.786787 -2.90087,-2.432268 -7.25204,-4.389054 -5.91445,-3.717941 -12.016342,-4.864492 -1.296996,-0.112173 -2.591277,-0.271755 -3.890997,-0.336462 -1.085182,-0.05401 -2.173325,-0.06347 -3.258887,-0.01957 -0.765677,0.03109 -1.855283,-0.445151 -2.287667,0.2445 -0.353781,0.564268 0.522498,1.371088 1.083595,1.67597 8.240452,4.477701 9.811183,4.236636 18.262731,6.05952 11.939136,2.18394 23.853245,4.652521 35.88172,6.204874 5.743735,0.741274 7.113335,0.768375 12.781805,1.189524 6.85455,0.336378 13.72569,0.746551 20.58373,0.256651 3.70652,-0.264762 4.26358,-0.432686 7.8887,-1.011389 6.21613,-1.392935 12.42398,-2.812343 18.70125,-3.842545 1.35291,-0.364977 2.34219,-0.514866 3.56189,-1.327393 1.64153,-1.093565 3.30098,-2.836425 4.54372,-4.381272 0.84293,-1.047866 1.83707,-2.02088 2.3689,-3.288316 0.49584,-1.181681 0.41449,-2.559329 0.62173,-3.838995 -1.02544,-1.434872 -1.80265,-3.129633 -3.07629,-4.304612 -4.0384,-3.725555 -13.25298,-7.629341 -17.13208,-9.54131 0,0 2.85715,2.452419 2.85715,2.452419 v 0 c 1.51005,0.485578 3.10399,0.729679 4.53016,1.456731 5.49236,2.800017 5.11745,3.114867 8.52857,7.462438 -0.14119,1.213667 0.0438,2.528828 -0.42359,3.64099 -0.52652,1.252596 -1.56655,2.167736 -2.43768,3.165967 -2.27537,2.607309 -4.94018,4.580756 -8.21411,5.241451 -6.11391,1.336846 -12.19633,2.840982 -18.32167,4.115672 -3.59461,0.584551 -4.09944,0.736791 -7.76769,1.044117 -6.72294,0.563228 -13.46927,0.315139 -20.19618,-0.0174 -5.44244,-0.363232 -7.0312,-0.412479 -12.530086,-1.017666 -11.932774,-1.313282 -23.789286,-3.423747 -35.547691,-5.977469 -3.020151,-0.783438 -5.986682,-1.875595 -9.060457,-2.350315 -0.540272,-0.08346 -0.953113,0.688321 -1.498023,0.719628 -0.611761,0.03511 -1.976016,0.09796 -1.771925,-0.531772 0.231017,-0.712791 1.364317,-0.29174 2.056003,-0.344776 2.738921,-0.209972 4.071026,0.03148 6.894422,0.271225 1.379308,0.294568 2.733251,0.936815 4.137928,0.883685 0.335245,-0.01276 -0.669308,-1.153283 -0.354573,-1.026792 3.721757,1.495875 4.295085,4.277463 3.378451,8.095867 -0.290942,1.211972 -0.820075,2.340646 -1.230116,3.510969 -1.335224,2.456352 -2.109945,4.476259 -4.307817,6.206529 -3.955197,3.11371 -9.705659,1.52032 -14.01683,0.63699 -4.029577,-0.97703 -6.269653,-1.42931 -10.262804,-2.78257 -1.697105,-0.57513 -3.320243,-1.399992 -5.031793,-1.921776 -0.127142,-0.03873 0.203709,0.506092 0.09926,0.418042 -2.898561,-2.443679 -2.243476,-1.882493 -3.629624,-5.256772 -0.159439,-1.154656 -0.416266,-2.298274 -0.478279,-3.463981 -0.306629,-5.763843 0.97575,-13.133709 3.00911,-18.441698 0.447357,-1.167799 1.081738,-2.239571 1.622609,-3.359353 0.520747,-0.54023 0.918184,-1.272661 1.562248,-1.620666 0.770238,-0.416187 2.764384,0.150423 3.414122,0.356123 2.28093,0.722136 4.405735,1.956235 6.543586,3.050027 0.944933,0.535748 1.873382,1.10756 2.8348,1.60723 0.369425,0.192007 -1.402317,-0.920585 -1.056033,-0.682773 1.06408,0.730769 2.152553,1.419151 3.209688,2.161801 3.31497,2.328816 6.481765,4.893638 9.723658,7.338478 4.841069,3.780939 3.067072,2.507596 10.233676,7.226188 3.795695,2.499138 7.802902,4.517961 12.247151,5.13212 3.122869,0.404094 6.187336,0.763719 9.32731,0.199808 2.627365,-0.471853 4.997655,-1.878458 7.426172,-2.972043 2.857673,-1.279474 3.142306,-1.447668 6.081447,-2.596322 3.70947,-1.449709 7.56922,-2.613151 10.63762,-5.460159 0.62912,-0.681861 1.33468,-1.289065 1.88737,-2.045573 0.78215,-1.07062 2.70771,-4.906725 3.22989,-5.908149 2.38622,-4.576185 4.81531,-9.125603 7.38798,-13.581325 2.66232,-4.673765 2.97945,-5.297764 5.7502,-9.89329 2.52807,-4.193012 5.05343,-8.550607 8.34565,-12.104287 0.88715,-0.957583 1.8978,-1.768818 2.84671,-2.653226 0.98348,-0.726657 1.94689,-1.486718 2.95045,-2.179968 5.10126,-3.523886 10.6788,-6.182991 16.58129,-7.616841 1.57266,-0.33813 3.13442,-0.74329 4.71796,-1.014392 3.51098,-0.601081 7.08889,-0.993776 10.64998,-0.739315 1.7321,0.123751 3.41807,0.761437 5.15309,0.817908 0.26295,0.0087 0.30116,-0.764691 0.53474,-0.632784 1.30998,0.739751 2.34745,1.948796 3.52117,2.923192 1.20712,1.213584 2.4606,2.374559 3.62138,3.640752 4.15611,4.533601 7.96357,9.709841 9.7118,15.936697 0.20732,0.738495 0.25134,1.520129 0.37703,2.280192 -0.0295,0.656953 0.0543,1.608259 -0.31217,2.240904 -0.57237,0.988281 -2.71879,1.339901 -3.5915,1.808501 -2.45394,0.973025 -4.9115,1.959987 -7.42792,2.728501 -6.04452,1.846 -12.24914,2.930728 -18.43508,4.032784 -10.29268,1.594172 -9.82489,1.594858 -20.58002,2.941045 -3.61022,0.451881 -7.2283,0.826815 -10.83848,1.27914 -4.77963,0.598846 -10.71305,1.212086 -15.50108,2.608171 -1.38358,0.403429 -2.68218,1.096134 -4.02327,1.644205 -0.85844,0.650572 -1.78021,1.21167 -2.57534,1.951722 -0.73776,0.686631 -1.35279,1.516934 -1.99897,2.305652 -2.62305,3.201652 -4.72128,6.83756 -7.21831,10.151238 -2.75211,3.743562 -5.51986,7.676586 -8.985225,10.686396 -0.575418,0.499779 -1.211127,0.910937 -1.816687,1.366402 -1.335672,0.634759 -1.743655,1.022808 -3.215989,0.998986 -0.507217,-0.0081 -1.003285,-0.167453 -1.500261,-0.278313 -1.661669,-0.370688 -3.288529,-0.910479 -4.908112,-1.452029 -0.55668,-0.195705 -1.688574,-0.611036 -2.323339,-0.780206 -1.526451,-0.406819 -3.109457,-0.51927 -4.646694,-0.861665 -3.954459,-0.905165 -7.823089,-2.114524 -11.59806,-3.701282 -1.4528,-0.610676 -2.85105,-1.371781 -4.314012,-1.952891 -0.17714,-0.07041 -0.376961,0.0096 -0.565442,0.01459 -2.690843,-1.708826 -5.374683,-3.43111 -8.072536,-5.12704 -1.425114,-0.895849 -2.83706,-1.819521 -4.296121,-2.647876 -7.39881,-4.200533 -15.353186,-7.158101 -23.221417,-10.094743 -4.885032,-1.447342 -8.003848,-2.753254 -12.991098,-2.934325 -2.661428,-0.09662 -5.0513126,0.112818 -7.1014815,2.08774 -1.5848884,1.52671 -1.7551132,3.339028 -2.3048681,5.408809 -0.3305508,3.11666 -0.661969,4.181027 -0.078604,7.360002 0.242806,1.323173 0.6618796,2.605254 1.1104869,3.86289 1.5804785,4.430752 4.0048877,8.380913 6.7059377,12.082756 2.731993,3.575381 3.421698,4.614391 6.397302,7.961751 4.277519,4.81195 9.03169,9.06468 14.172443,12.73802 3.691664,2.87297 7.334849,5.77742 10.658553,9.15934 3.848339,3.91574 7.224237,8.32416 10.305001,12.96954 3.207616,4.77095 6.284275,9.71164 10.054139,13.99207 1.162719,1.32019 2.320593,2.66728 3.656168,3.77615 5.08212,4.21949 7.09965,5.30111 11.937874,8.27544 3.255117,1.15943 4.21382,1.70577 7.619809,2.11701 4.489548,0.54209 8.874987,-0.55735 13.050643,-2.28687 1.8387,-0.76857 3.65799,-1.59267 5.50622,-2.33349 3.58043,-1.43514 7.2819,-2.47774 10.89864,-3.79312 5.8946,-2.29444 11.87473,-4.36834 18.02559,-5.6872 6.80506,-1.25303 13.68161,-2.32551 20.59518,-2.37227 3.00083,0.12409 5.9669,0.31047 8.88855,1.1522 0.84287,0.24282 2.06209,1.73893 2.48022,0.9049 0.41321,-0.82417 -1.29958,-1.71938 -2.14936,-1.56484 -0.78558,0.14287 1.2499,1.07651 1.87485,1.61477 2.00115,2.22902 3.86802,4.3952 5.13251,7.24795 0.38385,0.86595 0.75422,1.76261 0.91047,2.70918 0.28884,1.74995 -0.19879,2.42627 -0.78766,3.90916 -0.319,0.41067 -0.58284,0.88103 -0.95702,1.23202 -2.47748,2.32398 -7.34075,2.20668 -10.38324,2.23254 -1.91137,-0.18071 -3.05639,-0.23687 -4.91878,-0.60432 -2.48785,-0.49084 -4.79307,-1.5655 -7.0945,-2.66938 -1.67865,-0.72996 -2.58114,-1.17872 -4.33766,-1.71026 -3.37102,-1.02006 -6.8618,-1.21547 -10.34321,-1.08072 -6.81385,0.49781 -13.59274,1.5148 -20.17102,3.57978 -1.20256,0.38121 -2.41402,0.73047 -3.60769,1.1436 -6.21928,2.1525 -12.217693,5.02122 -18.496263,6.98396 -6.520153,2.12562 -13.056747,4.3434 -19.837004,5.24435 -2.596547,0.25798 -3.990001,0.49489 -6.572535,0.38032 -3.460454,-0.15353 -6.889498,-1.08035 -10.133255,-2.35199 0.999528,0.68025 2.005845,1.3488 2.998589,2.04078 0.397941,0.27736 -0.815434,-0.52038 -1.213922,-0.79683 -1.736158,-1.20439 -3.285687,-2.69467 -4.636866,-4.38619 -0.305614,-0.43889 -0.644024,-0.85277 -0.916838,-1.31664 -1.064859,-1.81051 -1.564045,-4.0371 -1.470607,-6.16908 0.07244,-1.79521 0.199573,-3.58631 0.346767,-5.37602 0.09402,-1.99675 0.246782,-3.96821 1.478516,-5.56359 2.017044,-2.42849 4.433741,-4.39369 6.568879,-6.69207 2.118065,-2.36106 3.970434,-4.99568 6.198639,-7.24824 0.953277,-0.93479 2.123181,-2.10592 3.117851,-2.98298 2.258657,-1.99159 4.713889,-3.69963 7.268568,-5.20135 3.281876,-1.83234 6.606807,-3.59132 10.084808,-4.94409 3.100255,-1.17353 6.230727,-2.29838 9.231907,-3.7499 2.935194,-1.50411 6.013766,-2.76556 9.300846,-2.80376 3.27413,0.0712 6.55522,0.18016 9.79709,0.73181 4.76828,0.81563 9.50849,1.88296 14.32858,2.28686 1.89765,0.0936 4.05076,0.30741 5.95387,-0.006 0.73467,-0.12079 1.44064,-0.40353 2.14379,-0.66512 2.89978,-1.07875 5.49163,-2.81309 8.05228,-4.6199 3.52548,-2.62039 4.49358,-3.2162 7.90443,-6.3062 6.80265,-6.16279 12.89565,-13.21368 19.03939,-20.12583 2.9965,-3.687697 4.00198,-4.567263 6.21694,-8.37038 0.98073,-1.683948 1.51456,-2.637241 1.72747,-4.495008 0.0581,-0.507705 -0.0536,-1.46233 -0.10837,-2.024578 z" />
    <path
       style="fill:#550022;fill-opacity:1;stroke:#000000;stroke-width:1.37513;stroke-opacity:0"
       id="path8"
       d="m 149.37559,44.896693 c -0.33002,0.306905 -0.66006,0.613834 -0.99011,0.92075 -0.76333,0.732499 -1.51956,1.473887 -2.28999,2.197495 -3.40848,3.201327 -3.19169,2.744255 -6.55362,6.572925 -3.24178,3.691835 -3.96594,4.837426 -6.91633,8.812677 -5.96628,9.430012 -10.54547,19.778882 -15.20547,30.014964 -1.87149,3.908857 -3.45443,7.967516 -5.21196,11.934866 -1.91694,3.79568 -4.55158,7.08053 -7.20021,10.28278 -2.98532,3.28573 -6.294292,6.2064 -9.581932,9.12266 -0.354529,0.28769 -2.072292,1.69824 -2.529034,2.01093 -0.816432,0.55895 -1.800222,1.02661 -2.65691,1.48967 -1.742771,0.94195 -1.951038,1.0793 -3.746327,2.11374 -4.67224,2.8301 -8.214459,7.18629 -10.655398,12.34461 -0.628198,1.32756 -1.118368,2.72749 -1.677561,4.09123 -1.870448,5.52771 -3.726391,11.14873 -4.6794,16.97118 -0.128798,0.7868 -0.206444,1.58255 -0.309678,2.37383 -0.238372,2.09804 -0.286438,4.21138 -0.39074,6.31954 -0.0073,0.14425 -0.124266,2.54699 -0.243447,2.85329 -0.128881,0.33112 -0.436725,0.53929 -0.655087,0.80895 -0.454554,0.11714 -0.898505,0.30524 -1.363662,0.35118 -2.188017,0.21615 -4.546367,-0.35379 -6.574972,-1.20405 -0.775192,-0.32491 -2.088387,-0.26644 -2.255799,-1.1533 -0.166679,-0.88298 1.501412,0.75586 2.252116,1.1338 -0.70945,-0.77661 -1.483832,-1.48864 -2.128346,-2.32984 -1.611361,-2.10315 -3.037536,-4.80767 -4.176819,-7.20921 -1.31865,-2.77965 -2.649582,-6.15492 -3.641296,-9.08666 -0.527526,-1.55947 -0.969758,-3.1517 -1.454638,-4.72755 -0.387326,-1.61852 -0.803107,-3.22927 -1.161973,-4.85559 -0.439686,-1.99257 -1.434731,-7.25136 -1.839304,-9.28788 -0.882087,-4.44015 -1.856785,-8.8366 -2.92431,-13.22765 -2.272435,-9.3148 -5.209756,-18.41185 -8.391486,-27.39719 -0.569844,-1.411773 -1.061847,-2.864025 -1.709503,-4.235343 -0.782193,-1.656169 -1.685942,-3.241343 -2.573464,-4.833154 -1.846708,-3.312152 -3.264139,-5.63595 -5.439898,-8.697532 -2.074786,-2.919504 -3.345166,-4.375997 -5.552844,-7.060365 -0.738961,-0.828491 -1.490898,-1.64344 -2.216878,-2.485461 -0.506568,-0.587524 -1.182955,-1.063837 -1.480003,-1.802302 -0.129667,-0.32236 0.100212,-0.772199 0.360829,-0.979978 1.960333,-1.562896 7.029206,-0.89154 9.184428,-0.781685 3.131343,0.579786 5.591954,0.883832 8.606093,2.047561 2.815592,1.087067 6.431546,3.136387 9.021118,4.734691 0.04002,0.02456 -0.108241,0.09691 -0.07228,0.128132 1.026809,0.890348 2.109202,1.701719 3.163802,2.552569 3.622794,3.095601 6.309183,7.092261 7.632851,11.927941 0.983275,3.592114 1.136796,5.962718 1.60374,9.69927 0.424094,4.754176 0.640211,9.526866 0.745962,14.300946 0.03121,1.40962 0.117846,4.29434 -0.06811,5.85585 -0.04368,0.36679 -0.201315,0.70643 -0.301971,1.05964 1.515011,0.36299 3.142249,1.81084 4.545031,1.08903 0.906256,-0.46633 -0.302877,-2.16569 -0.330106,-3.25785 -0.04153,-1.66648 0.01008,-3.33701 0.124264,-4.99947 0.309743,-4.51082 0.925889,-8.4346 1.831661,-12.868979 0.510307,-2.498323 1.142872,-4.965092 1.714309,-7.447636 2.363762,-8.898895 5.01773,-17.739409 8.506425,-26.200236 1.825532,-4.427308 2.547365,-5.676751 4.65061,-9.865801 2.208719,-4.039187 4.738581,-7.761591 8.200225,-10.630727 3.473982,-2.87936 7.449794,-4.790506 11.419664,-6.670752 0.851331,-0.344263 4.669998,-1.914106 5.776468,-2.275539 0.50309,-0.164347 1.93798,0.0081 1.53955,-0.365096 -1.26996,-1.189073 -2.85518,-2.121791 -4.50762,-2.413924 -0.51549,-0.09113 -0.505408,0.99728 -0.784852,1.478262 -0.611302,1.052183 -1.257601,2.079705 -1.886408,3.119559 -4.12164,6.693591 -8.721998,13.438897 -11.849946,20.77706 -0.464766,1.090353 -0.831183,2.227396 -1.246783,3.341097 -0.959948,3.427545 -1.384434,7.056615 -0.463426,10.557618 0.523227,1.98893 0.971292,2.617111 1.894539,4.42608 1.738412,2.801812 3.806629,5.376845 6.233774,7.496022 0.633289,0.552939 1.259398,1.128024 1.961713,1.570939 2.290667,1.444611 4.667238,2.720871 7.000864,4.08131 2.896275,1.251204 5.937975,1.867478 9.044695,1.967494 0.81203,0.02611 1.62483,-0.02393 2.43647,-0.06151 0.63779,-0.02952 1.27475,-0.199713 1.91078,-0.140168 0.48822,0.04573 0.94042,0.300784 1.41062,0.451164 -1.27384,-0.48875 -2.58514,-2.05835 -3.82155,-1.466261 -1.09001,0.521979 -0.5122,2.546977 -0.953,3.752678 -0.60012,1.64146 -1.39415,3.191865 -2.15613,4.751456 -2.56857,5.25721 -5.52755,10.27225 -8.425632,15.31585 -1.211613,2.41414 -4.225599,6.59096 -2.85929,9.7157 0.431356,0.9865 1.166882,1.83859 1.996806,2.45152 5.909856,4.36451 6.245056,4.1365 11.706566,5.99955 4.77669,1.17244 9.63451,1.84688 14.52134,1.11908 2.11883,-0.31558 6.59014,-1.57935 8.65575,-2.38796 1.40657,-0.5506 2.75291,-1.26926 4.1294,-1.90389 4.15021,-2.06931 8.05459,-4.6268 11.81688,-7.42918 1.35829,-1.01173 2.66829,-2.09971 4.0349,-3.09804 3.41563,-2.49521 4.65022,-3.20618 8.11952,-5.41331 1.31562,-0.77492 4.41535,-2.66811 5.95871,-3.35264 0.63659,-0.28234 1.28817,-0.60088 1.97404,-0.64882 0.46336,-0.0325 1.75072,0.65209 1.33938,0.41725 -4.35247,-2.48489 -3.90719,-3.31181 -3.92073,-0.31128 -0.29011,0.76054 -0.50601,1.56007 -0.87033,2.28167 -1.16132,2.30022 -3.58571,5.69642 -4.98232,7.52214 -2.50165,3.27025 -5.6242,6.89223 -8.4773,9.78 -1.57669,1.59582 -3.25593,3.06682 -4.8839,4.60022 -4.35454,3.88731 -9.00567,7.34424 -13.69324,10.72819 -2.60214,1.87849 -5.20695,3.70483 -7.92271,5.37905 -3.78895,1.94884 -8.00361,2.26714 -12.11809,2.60446 0,0 4.10986,3.20076 4.10986,3.20076 v 0 c 3.47069,-0.32491 7.14065,-0.52238 10.45239,-1.81578 0.64798,-0.25308 1.24782,-0.63382 1.87173,-0.95073 2.5385,-1.82958 4.95612,-3.81545 7.41341,-5.77265 4.51139,-3.59329 9.07223,-7.1195 13.38722,-10.99571 1.63827,-1.53815 3.31946,-3.02354 4.91477,-4.61443 3.0425,-3.03404 5.95155,-6.35471 8.75721,-9.64678 1.76965,-2.07645 4.14743,-4.78993 5.63446,-7.26541 0.44531,-0.74134 0.74488,-1.57536 1.1173,-2.36302 0.0887,-0.63775 0.67153,-1.44374 0.26587,-1.91326 -0.5078,-0.58773 -4.29616,-4.61743 -6.71101,-4.04195 -0.64917,0.15471 -1.24519,0.51411 -1.83828,0.84082 -1.16481,0.64163 -4.75508,3.02681 -5.6465,3.61 -2.67872,1.81038 -5.40047,3.62849 -8.03908,5.50522 -5.17549,3.68114 -10.15429,7.74841 -15.897,10.3709 -1.38212,0.60996 -2.74149,1.28525 -4.14639,1.82988 -2.35635,0.91348 -6.04558,2.01378 -8.4994,2.36512 -4.8826,0.69906 -9.73028,8.1e-4 -14.47098,-1.3133 -1.42986,-0.53824 -2.8118,-1.26256 -4.2896,-1.61474 -0.36131,-0.0861 1.09875,1.07865 0.8384,0.79227 -0.65346,-0.7188 -1.54641,-1.22001 -2.01911,-2.09101 -1.649492,-3.03941 1.01001,-7.21185 2.14606,-9.71817 2.89245,-5.40136 2.31176,-4.37453 5.44673,-9.9763 1.65858,-2.96367 3.96011,-6.866628 5.44658,-10.010366 0.60099,-1.27102 2.18847,-2.618969 1.62178,-3.908575 -0.96154,-2.188194 -3.52696,-2.960177 -5.29043,-4.440269 -0.47574,-0.08198 -0.94563,-0.238438 -1.42723,-0.245958 -1.37015,-0.02145 -2.71804,0.557946 -4.10249,0.28602 -3.08297,-0.08764 -6.072161,-0.802919 -8.915977,-2.108551 0.550398,0.450342 2.266333,1.687279 1.651179,1.351008 -0.714211,-0.390413 -1.321329,-0.981615 -1.952474,-1.515705 -2.434001,-2.059708 -4.529675,-4.570866 -6.294899,-7.315764 -0.897815,-1.681893 -1.397822,-2.398579 -1.935873,-4.255405 -0.98949,-3.414797 -0.747637,-7.002065 0.08233,-10.416746 0.374448,-1.120638 0.699752,-2.262269 1.123346,-3.361912 2.897646,-7.522319 7.254788,-14.290213 11.874968,-20.652243 0.74088,-0.974361 1.49134,-1.940137 2.22261,-2.923075 0.46498,-0.625 1.81059,-1.258062 1.36583,-1.900305 -1.17773,-1.700602 -3.18401,-2.548962 -4.997492,-3.343743 -0.441719,-0.193592 -0.887865,0.375081 -1.328634,0.571227 -1.068046,0.47529 -4.672706,2.126971 -5.507624,2.508629 -3.937689,1.998088 -7.947336,3.968563 -11.438249,6.839821 -1.165924,0.958968 -2.292809,1.99039 -3.294845,3.148809 -1.943564,2.246887 -3.392522,5.119985 -4.862865,7.715843 -2.058533,4.26611 -2.751353,5.498947 -4.515121,10.007947 -3.349428,8.56267 -5.802685,17.520186 -8.243514,26.424603 -0.624657,2.460316 -1.304126,4.90486 -1.873969,7.38094 -1.083426,4.70769 -1.648372,7.9615 -2.248272,12.70286 -0.204448,1.61587 -0.39186,3.2363 -0.496551,4.86349 -0.06731,1.04595 -0.592133,2.30374 -0.01881,3.14555 1.268262,1.86193 3.369681,2.83165 5.054522,4.24747 0.160093,-2.46443 -0.04119,-4.90545 -0.183468,-7.36853 -0.277965,-4.81263 -0.562153,-9.62502 -0.908299,-14.432504 C 58.505951,96.426564 58.253228,92.946851 57.523691,89.87704 56.657779,86.233389 54.92605,82.861655 52.535892,80.141196 51.729535,79.22341 50.782865,78.465478 49.906352,77.62762 44.858493,73.538473 46.450974,74.639807 38.927584,69.985364 36.468092,68.463768 32.386951,66.249401 29.728471,65.241782 26.874962,64.160235 23.967848,63.77222 21.008494,63.232103 c -2.098157,-0.123675 -5.773128,-0.496549 -7.930161,-0.048 -0.798382,0.166024 -3.2257791,0.897462 -2.565152,2.67887 0.304063,0.819919 1.110042,1.290348 1.68273,1.916712 0.785784,0.859427 1.594715,1.693323 2.392073,2.539989 2.445229,2.854452 3.471558,3.941293 5.751153,7.093197 3.886149,5.373234 7.275777,11.235088 9.645838,17.583964 2.720742,7.592555 5.215913,15.046515 7.262476,22.897345 0.385306,1.47809 0.756816,2.96039 1.135228,4.44059 1.072241,4.38972 2.058796,8.78786 2.965255,13.22214 0.502455,2.45794 1.36533,6.91603 1.899748,9.34213 0.359826,1.63351 0.76134,3.25576 1.142008,4.88364 0.481776,1.58478 0.923664,3.18464 1.445335,4.75436 1.014988,3.05407 2.233178,6.17944 3.53753,9.10111 1.107402,2.48051 2.298965,5.00383 3.849514,7.20558 0.60159,0.85424 1.330419,1.59241 1.995629,2.38861 4.688134,3.15378 8.048542,6.13601 13.558056,6.56142 0.710058,0.0549 1.431503,0.084 2.135306,-0.0322 0.563188,-0.093 1.080932,-0.39224 1.621397,-0.58835 0.267421,-0.37227 0.640572,-0.67806 0.802236,-1.11682 0.09013,-0.24466 0.137574,-2.88953 0.13897,-2.95995 0.04201,-2.1096 0.05354,-4.22218 0.270672,-6.32261 0.739461,-6.66591 2.193149,-13.2108 4.515115,-19.4446 0.569525,-1.3338 1.068803,-2.706 1.708576,-4.00139 2.497529,-5.05692 6.149066,-9.213 10.826827,-11.87714 3.301395,-1.76351 0.798541,-0.45146 3.874427,-2.0044 0.954065,-0.48168 1.877623,-0.91555 2.752728,-1.55807 0.315166,-0.23142 2.235731,-1.94716 2.428455,-2.11796 3.225737,-3.03878 6.642327,-5.85887 9.615567,-9.19822 2.63409,-3.28549 5.33352,-6.57868 7.3719,-10.35159 1.82477,-3.96119 3.02794,-8.224922 4.70548,-12.260803 4.21157,-10.431174 8.65798,-20.860329 14.85999,-30.093707 1.11711,-1.498525 2.18642,-3.040947 3.35133,-4.495571 4.14756,-5.179118 8.92875,-9.629765 14.29556,-13.239692 z" />
  </g>
  <g
     inkscape:label="Warstwa 1"
     inkscape:groupmode="layer"
     id="layer1">
    <path
       style="fill:#4a4933;fill-opacity:1;stroke:#000000;stroke-width:1.37513;stroke-opacity:0"
       d="m 58.363631,90.666033 c 0,0 26.757828,-7.373258 46.752679,-8.334988 19.99486,-0.961729 42.34206,16.02883 42.34206,16.02883 0,0 -2.0583,7.052685 -18.81868,9.296725 -16.76041,2.24403 -52.633534,-1.60289 -52.633534,-1.60289 z"
       id="path2" />
    <path
       style="fill:#552200;fill-opacity:1;stroke:#000000;stroke-width:0.462;stroke-opacity:0"
       d="m 51.274802,38.000246 c -0.107318,-0.219779 -0.256683,-0.418934 -0.437621,-0.583499 -0.221902,-0.201822 -0.502537,-0.35422 -0.802309,-0.364685 -0.0729,-0.0025 -0.145935,0.0033 -0.21881,0 -0.170478,-0.0076 -0.335168,-0.0647 -0.49015,-0.13613 -0.154982,-0.07143 -0.302836,-0.157603 -0.458035,-0.228556 -0.448282,-0.204944 -0.946412,-0.277597 -1.438942,-0.296898 -0.49253,-0.0193 -0.985687,0.01241 -1.478542,0.0052 -0.559695,-0.0082 -1.121777,-0.06664 -1.677553,0 -0.493978,0.05923 -0.981338,0.220861 -1.385808,0.510561 -0.0448,0.03209 -0.08866,0.06577 -0.136492,0.09312 -0.04784,0.02736 -0.100321,0.0484 -0.155256,0.05275 -0.0365,0.0029 -0.07311,-0.0016 -0.109594,-0.0046 -0.03649,-0.003 -0.07372,-0.0044 -0.109217,0.0046 -0.05287,0.01336 -0.09721,0.04832 -0.145875,0.07294 -0.09926,0.05021 -0.215263,0.05644 -0.326016,0.04614 -0.110754,-0.01031 -0.219644,-0.03605 -0.330418,-0.04614 -0.14535,-0.01324 -0.29167,6.29e-4 -0.437621,0 -0.249678,-0.0011 -0.500738,-0.04554 -0.729372,-0.145872 -0.149387,-0.06556 -0.287852,-0.154136 -0.437623,-0.218813 -0.120241,-0.05192 -0.247117,-0.08815 -0.364686,-0.145873 -0.09771,-0.04797 -0.188747,-0.110656 -0.291748,-0.145876 -0.140169,-0.04793 -0.292791,-0.04182 -0.437623,-0.07294 -0.256565,-0.05512 -0.475947,-0.223631 -0.729372,-0.291748 -0.142903,-0.03841 -0.292553,-0.04376 -0.437623,-0.07294 -0.07563,-0.01521 -0.150485,-0.03712 -0.218811,-0.07294 -0.04826,-0.0253 -0.09358,-0.05764 -0.145875,-0.07294 -0.05856,-0.01714 -0.121022,-0.01226 -0.181859,-0.0076 -0.06084,0.0047 -0.121807,0.0076 -0.182824,0.0076 H 36.32269 c -0.753708,0 -1.507598,-0.01965 -2.26105,0 -0.492537,0.01285 -1.004438,0.04482 -1.458743,-0.145875 -0.0712,-0.02989 -0.141954,-0.06549 -0.21881,-0.07294 -0.07273,-0.007 -0.146687,0.01172 -0.218813,0 -0.07604,-0.01236 -0.143332,-0.05751 -0.218811,-0.07294 -0.07167,-0.01465 -0.14568,-0.0016 -0.21881,0 -0.148282,0.0033 -0.292952,-0.04025 -0.437624,-0.07294 -0.359055,-0.08113 -0.729285,-0.09643 -1.094057,-0.145875 -0.29311,-0.03973 -0.582795,-0.101536 -0.875244,-0.145873 -0.242068,-0.0367 -0.492262,-0.06101 -0.729372,0 -0.07449,0.01917 -0.146578,0.04651 -0.218813,0.07294 -0.260818,0.09543 -0.527307,0.17998 -0.802306,0.218813 -0.289613,0.0409 -0.584347,0.03043 -0.875247,0 -0.170234,-0.01781 -0.344668,-0.04215 -0.51056,0 -0.112023,0.02846 -0.214628,0.08618 -0.309126,0.152734 -0.0945,0.06655 -0.182122,0.142316 -0.274371,0.211952 -0.113413,0.08561 -0.234346,0.162212 -0.364686,0.218811 -0.100137,0.04348 -0.207639,0.07628 -0.291748,0.145875 -0.05302,0.04387 -0.09418,0.10045 -0.145874,0.145873 -0.06592,0.05793 -0.146705,0.09585 -0.218812,0.145875 -0.141581,0.09822 -0.24581,0.239945 -0.364685,0.364686 -0.289437,0.30372 -0.665647,0.506529 -1.02112,0.729372 -0.02971,0.01863 -0.05948,0.03754 -0.08555,0.06099 -0.02607,0.02345 -0.04851,0.05186 -0.06032,0.08488 -0.01647,0.04604 -0.01183,0.09662 -0.0073,0.145311 0.0045,0.04869 0.0073,0.09754 0.0073,0.146437 v 0.218813 c 0,0.04863 -0.0019,0.09728 0,0.145873 0.0074,0.19256 0.09438,0.377342 0.222811,0.521002 0.128435,0.143661 0.296247,0.248309 0.474451,0.32164 0.356408,0.146661 0.749162,0.171396 1.126167,0.251416 0.504708,0.107125 0.981812,0.313727 1.458742,0.510561 1.903139,0.785446 3.873128,1.436589 5.907907,1.750491 0.363628,0.0561 0.728832,0.101354 1.094058,0.145873 0.775879,0.09458 1.553056,0.185936 2.333987,0.218813 0.972152,0.04093 1.94792,-0.0089 2.917487,0.07294 1.838567,0.15515 3.625307,0.780911 5.470284,0.802309 0.34038,0.0039 0.680956,-0.01279 1.021119,0 0.218964,0.0082 0.439195,0.02864 0.656434,0 0.19896,-0.02623 0.38993,-0.09292 0.583499,-0.145875 0.262491,-0.07181 0.531529,-0.118712 0.802307,-0.145873 0.296218,-0.02971 0.594493,-0.03588 0.89042,-0.06837 0.295927,-0.03249 0.592657,-0.09254 0.860071,-0.223377 0.0977,-0.0478 0.191024,-0.104822 0.291748,-0.145876 0.138078,-0.05628 0.288756,-0.08139 0.437624,-0.07294 0.344501,-0.109563 0.685154,-0.231225 1.021119,-0.364686 0.284494,-0.113014 0.57062,-0.237548 0.802309,-0.437621 0.02606,-0.02251 0.05146,-0.04602 0.07294,-0.07294 0.0469,-0.05878 0.07338,-0.132109 0.08358,-0.20661 0.01019,-0.0745 0.0048,-0.150401 -0.0071,-0.224651 -0.02378,-0.1485 -0.07338,-0.293625 -0.07646,-0.443986 -0.0029,-0.139327 0.03451,-0.276401 0.08084,-0.407832 0.04632,-0.131432 0.10198,-0.259847 0.137973,-0.394474 0.06351,-0.237568 0.06351,-0.491804 0,-0.729372"
       id="path3"
       inkscape:path-effect="#path-effect3"
       inkscape:original-d="m 51.274802,38.000246 c -0.145873,-0.1945 -0.258403,-0.419213 -0.437621,-0.583499 -0.06337,-0.05809 -0.680646,-0.334269 -0.802309,-0.364685 -0.07076,-0.0177 -0.148444,0.01918 -0.21881,0 -0.326703,-0.0891 -0.619663,-0.282554 -0.948185,-0.364686 -0.956045,-0.239011 -1.935882,-0.291748 -2.917484,-0.291748 -0.559186,0 -1.11946,-0.03488 -1.677553,0 -0.533612,0.03335 -0.927113,0.281212 -1.385808,0.510561 -0.09725,0.04863 -0.187204,0.116004 -0.291748,0.145873 -0.07013,0.02003 -0.147291,-0.01431 -0.218811,0 -0.05331,0.01066 -0.09173,0.06802 -0.145875,0.07294 -0.217911,0.01982 -0.437621,0 -0.656434,0 -0.145873,0 -0.292875,0.0181 -0.437621,0 -0.246025,-0.03075 -0.490974,-0.07776 -0.729372,-0.145872 -0.07294,-0.02085 -0.328218,-0.171924 -0.437623,-0.218813 -0.12034,-0.05158 -0.245044,-0.0927 -0.364686,-0.145873 -0.09936,-0.04416 -0.187605,-0.114634 -0.291748,-0.145876 -0.14165,-0.04249 -0.294947,-0.03402 -0.437623,-0.07294 -0.252627,-0.0689 -0.476745,-0.222851 -0.729372,-0.291748 -0.142674,-0.03891 -0.293259,-0.04086 -0.437623,-0.07294 -0.07505,-0.01667 -0.147426,-0.04438 -0.218811,-0.07294 -0.05047,-0.02019 -0.09256,-0.06227 -0.145875,-0.07294 -0.09665,-0.01934 -0.255151,0 -0.364683,0 -0.218813,0 -0.437624,0 -0.656437,0 -0.750932,0 -1.511845,0.02498 -2.26105,0 -0.407506,-0.01357 -1.014378,-0.04713 -1.458743,-0.145875 -0.07505,-0.01667 -0.142975,-0.0603 -0.21881,-0.07294 -0.07195,-0.01198 -0.146868,0.01199 -0.218813,0 -0.07583,-0.01265 -0.142973,-0.0603 -0.218811,-0.07294 -0.07195,-0.01199 -0.14632,0.0081 -0.21881,0 -0.146984,-0.01633 -0.291457,-0.05045 -0.437624,-0.07294 -1.074734,-0.165343 0.08204,0.02215 -1.094057,-0.145875 -0.292801,-0.04183 -0.581282,-0.113212 -0.875244,-0.145873 -0.15561,-0.0173 -0.580911,-0.02474 -0.729372,0 -0.07584,0.01265 -0.145875,0.04862 -0.218813,0.07294 -0.325062,0.108355 -0.472411,0.177576 -0.802306,0.218813 -0.282808,0.03535 -0.590005,0 -0.875247,0 -0.170186,0 -0.343678,-0.03338 -0.51056,0 -0.203026,0.04061 -0.413192,0.258244 -0.583497,0.364686 -0.120216,0.07513 -0.240761,0.149963 -0.364686,0.218811 -0.09504,0.0528 -0.201281,0.08556 -0.291748,0.145875 -0.05722,0.03814 -0.09218,0.102915 -0.145874,0.145873 -0.06845,0.05476 -0.152841,0.08815 -0.218812,0.145875 -0.129379,0.113205 -0.227154,0.261535 -0.364685,0.364686 -1.480033,1.110025 0.524346,-0.644377 -1.02112,0.729372 -0.0514,0.04568 -0.124129,0.08064 -0.145875,0.145872 -0.03075,0.09226 0,0.194501 0,0.291748 0,0.07294 0,0.145876 0,0.218813 0,0.04863 -0.02917,0.106974 0,0.145873 0.462583,0.616778 1.132304,0.847228 1.823429,1.094058 1.525031,0.544655 -0.581179,-0.169413 1.458742,0.510561 1.971159,0.657053 3.873714,1.289917 5.907907,1.750491 0.358831,0.08124 0.729171,0.09879 1.094058,0.145873 1.023043,0.132006 1.303358,0.183274 2.333987,0.218813 0.977315,0.0337 1.941613,-0.03859 2.917487,0.07294 1.831795,0.209349 3.630205,0.65704 5.470284,0.802309 0.339317,0.02679 0.680746,0 1.021119,0 0.218813,0 0.439121,0.02556 0.656434,0 0.199112,-0.02342 0.387313,-0.104571 0.583499,-0.145875 0.265988,-0.056 0.534186,-0.101185 0.802307,-0.145873 0.257942,-0.04299 1.448652,-0.211259 1.750491,-0.291748 0.105058,-0.02802 0.187605,-0.114634 0.291748,-0.145876 0.14165,-0.04249 0.291751,-0.04862 0.437624,-0.07294 0.340373,-0.12156 0.68145,-0.241168 1.021119,-0.364686 0.667936,-0.242885 0.442645,-0.07796 0.802309,-0.437621 0.02432,-0.02432 0.06206,-0.04032 0.07294,-0.07294 0.0448,-0.134389 -0.01662,-0.709149 0,-0.875247 0.128831,-1.288325 -0.02957,0.06704 0.218811,-0.802306 0.03335,-0.116729 0,-0.578554 0,-0.729372"
       transform="matrix(2.8506625,0,0,3.1079082,-3.6792466,-15.124254)" />
    <path
       style="fill:#71c837;fill-opacity:1;stroke:#000000;stroke-width:0.462;stroke-opacity:0"
       d="m 26.921806,19.288803 c -0.247357,0.05578 -0.472265,0.20572 -0.618893,0.412595 -0.151937,0.214366 -0.21658,0.47625 -0.309446,0.722041 -0.273928,0.725013 -0.799462,1.320642 -1.237784,1.959824 -0.07502,0.109396 -0.147928,0.220862 -0.20477,0.340714 -0.05684,0.119852 -0.09745,0.248876 -0.104676,0.381327 -0.0037,0.06868 0.0015,0.137535 0,0.206298 -7.38e-4,0.0344 -0.0032,0.06889 0,0.103148 0.0078,0.0846 0.05032,0.164572 0.112604,0.222355 0.06229,0.05778 0.143349,0.0938 0.227315,0.106774 0.08397,0.01297 0.170655,0.0035 0.251699,-0.02201 0.08104,-0.0255 0.156623,-0.06671 0.225455,-0.11652 0.137664,-0.09961 0.247509,-0.231984 0.358401,-0.360736 0.110892,-0.128751 0.226622,-0.257232 0.371756,-0.345607 0.186532,-0.113583 0.407195,-0.152639 0.618893,-0.206298 0.390528,-0.09899 0.764541,-0.253402 1.134634,-0.412594 0.821396,-0.353316 1.632593,-0.733301 2.475569,-1.031487 0.27706,-0.09801 0.557889,-0.18731 0.82519,-0.309446 0.238589,-0.109017 0.467846,-0.244678 0.72204,-0.309446 0.435538,-0.110974 0.902627,-0.0037 1.340932,-0.103149 0.01715,-0.0039 0.03433,-0.0081 0.05188,-0.0092 0.01755,-0.0011 0.03572,0.001 0.05127,0.0092 0.01703,0.009 0.02991,0.02493 0.03693,0.04287 0.007,0.01794 0.0084,0.03777 0.006,0.05687 -0.0049,0.03822 -0.02454,0.07269 -0.04292,0.106555 -0.120592,0.222195 -0.203563,0.469244 -0.206299,0.72204 -3.72e-4,0.03438 7.32e-4,0.06877 0,0.103149 -0.0054,0.251874 -0.10808,0.490044 -0.206298,0.722041 -0.04249,0.100362 -0.08477,0.202022 -0.103148,0.309446 -0.02325,0.135888 -0.0073,0.274927 0,0.412595 0.04213,0.792011 -0.202828,1.585578 -0.103147,2.372419 0.06303,0.497523 0.260826,0.966097 0.412593,1.444081 0.138963,0.43766 0.240159,0.887001 0.309446,1.340935 0.135342,0.886697 0.148783,1.786743 0.206299,2.681864 0.02872,0.447025 0.06833,0.898228 0,1.340932 -0.05986,0.387794 -0.200848,0.757577 -0.309446,1.134636 -0.25072,0.87052 -0.328683,1.779856 -0.412597,2.681867 -0.04552,0.489255 -0.09348,0.980371 -0.211131,1.457447 -0.117652,0.477075 -0.308295,0.94292 -0.614057,1.327565 -0.07377,0.0928 -0.154244,0.180974 -0.216078,0.282122 -0.06184,0.101147 -0.104643,0.218757 -0.09337,0.336771 0.0016,0.01726 0.0044,0.03442 0.0054,0.05173 9.81e-4,0.01731 9.6e-5,0.03498 -0.0054,0.05142 -0.0079,0.02345 -0.02469,0.04295 -0.04353,0.05898 -0.01884,0.01603 -0.03995,0.02916 -0.05962,0.04417 -0.05848,0.04464 -0.103421,0.105607 -0.134538,0.172277 -0.03112,0.06667 -0.04884,0.139004 -0.05843,0.211951 -0.01918,0.145892 -0.0064,0.293978 -0.01333,0.440962 -0.0016,0.03439 -0.0043,0.06899 0,0.103148 0.0061,0.0485 0.02649,0.09474 0.0558,0.133872 0.02931,0.03913 0.06736,0.07131 0.109412,0.09625 0.0841,0.04988 0.18241,0.07091 0.279815,0.07942 0.19481,0.01703 0.390906,-1.01e-4 0.586459,-1.01e-4 h 0.825191 0.515741 c 0.137569,0 0.275411,0.01026 0.412597,0 0.313276,-0.02342 0.603264,-0.190242 0.825188,-0.412594 0.320378,-0.320997 0.514773,-0.764569 0.533654,-1.217697 0.01888,-0.453128 -0.13794,-0.911334 -0.430504,-1.257871 -0.449092,-0.378597 -0.720344,-0.95985 -0.722042,-1.547231 -3.98e-4,-0.137614 0.01317,-0.275611 0,-0.412594 -0.01679,-0.174631 -0.07652,-0.34234 -0.103148,-0.515744 -0.0366,-0.238337 -0.01,-0.481115 0,-0.72204 0.01279,-0.309215 -0.002,-0.618865 0,-0.928338 0.006,-0.916095 0.16267,-1.836524 0.515744,-2.681867 0.177854,-0.425823 0.403795,-0.829506 0.618892,-1.237784 0.272481,-0.517198 0.528447,-1.04356 0.825188,-1.547231 0.407302,-0.69133 0.891055,-1.339363 1.237784,-2.062973 0.293895,-0.613348 0.486099,-1.280346 0.515745,-1.959825 0.01349,-0.309191 -0.0065,-0.618921 0,-0.928338 0.0066,-0.312453 0.04015,-0.624001 0.04221,-0.936516 0.0021,-0.312516 -0.02869,-0.630231 -0.145361,-0.92016 C 37.723267,21.229306 37.4873,20.95198 37.339823,20.629736 37.190256,20.302926 37.136686,19.941576 37.030376,19.598249 36.75595,18.71199 36.10869,17.946132 35.276848,17.535276 34.86673,17.332714 34.420879,17.215543 33.989047,17.064713 33.557215,16.913884 33.127108,16.721675 32.801279,16.40064 c -0.03464,-0.03413 -0.06796,-0.06959 -0.103148,-0.103149 -0.186993,-0.178346 -0.425296,-0.299931 -0.676935,-0.358682 -0.251638,-0.05875 -0.516102,-0.05575 -0.769155,-0.0034 -0.506107,0.104642 -0.956056,0.401278 -1.325982,0.762178 -0.739851,0.721801 -1.197046,1.70184 -1.972767,2.384945 -0.480337,0.422988 -1.064185,0.714742 -1.54723,1.134635 -0.532411,0.462804 -0.930627,1.078228 -1.134636,1.753528"
       id="path4"
       inkscape:path-effect="#path-effect4"
       inkscape:original-d="m 26.921806,19.288803 c -0.206298,0.137532 -0.461888,0.220701 -0.618893,0.412595 -0.165815,0.202662 -0.192342,0.487833 -0.309446,0.722041 -0.510928,1.021856 -0.523026,0.725243 -1.237784,1.959824 -0.131197,0.226614 -0.226641,0.473626 -0.309446,0.722041 -0.02175,0.06524 0,0.137532 0,0.206298 0,0.03438 -0.03438,0.103148 0,0.103148 0.821701,0 0.763612,-0.179907 1.54723,-0.515743 0.199874,-0.08566 0.413833,-0.133924 0.618893,-0.206298 0.379497,-0.13394 0.757817,-0.271288 1.134634,-0.412594 2.684465,-1.006674 0.07582,-0.02106 2.475569,-1.031487 0.270748,-0.113999 0.552434,-0.200344 0.82519,-0.309446 0.243123,-0.09725 0.470263,-0.23751 0.72204,-0.309446 0.463132,-0.132324 0.871897,-0.103149 1.340932,-0.103149 0.03438,0 0.08777,-0.03075 0.103151,0 0.03075,0.06151 0,0.137532 0,0.206298 0,0.547877 0.04613,0.09097 -0.206299,0.72204 -0.01278,0.03192 0.0083,0.06979 0,0.103149 -0.06071,0.242838 -0.134371,0.482286 -0.206298,0.722041 -0.03124,0.104142 -0.08777,0.20181 -0.103148,0.309446 -0.01945,0.136149 0.01143,0.275538 0,0.412595 -0.08145,0.977428 -0.262532,1.216884 -0.103147,2.372419 0.0684,0.495927 0.286956,0.959481 0.412593,1.444081 0.115123,0.444045 0.222817,0.890463 0.309446,1.340935 0.274265,1.42617 0.206299,1.241091 0.206299,2.681864 0,0.446979 0.05544,0.897408 0,1.340932 -0.04863,0.388998 -0.226169,0.75156 -0.309446,1.134636 -0.192138,0.883831 -0.216387,1.798932 -0.412597,2.681867 -0.24879,1.119556 -0.426609,1.854994 -0.825188,2.785012 -0.08913,0.207979 -0.237961,0.404437 -0.309446,0.618893 -0.01087,0.03262 0.01537,0.0724 0,0.10315 -0.02175,0.04349 -0.07618,0.06269 -0.10315,0.103148 -0.172688,0.259032 -0.206296,0.523949 -0.206296,0.82519 0,0.03438 -0.01908,0.07454 0,0.103148 0.246081,0.369123 0.644562,0.309446 1.031486,0.309446 0.275064,0 0.550127,0 0.825191,0 0.171913,0 0.343828,0 0.515741,0 0.137533,0 0.282123,0.04349 0.412597,0 0.291748,-0.09725 0.607732,-0.195138 0.825188,-0.412594 0.532566,-0.532566 0.313441,-1.879737 0.10315,-2.475568 -0.123002,-0.568172 -0.522203,-1.014331 -0.722042,-1.547231 -0.04829,-0.128775 0.01945,-0.276444 0,-0.412594 -0.02479,-0.173558 -0.08859,-0.341032 -0.103148,-0.515744 -0.01998,-0.23985 0,-0.481362 0,-0.72204 0,-0.309446 -0.01545,-0.619278 0,-0.928338 0.05063,-1.012592 0.147031,-1.686343 0.515744,-2.681867 0.160213,-0.432578 0.406548,-0.828268 0.618892,-1.237784 0.269058,-0.518901 0.530672,-1.042342 0.825188,-1.547231 0.599125,-1.02707 0.740529,-0.90271 1.237784,-2.062973 0.123243,-0.287564 0.476443,-1.606127 0.515745,-1.959825 0.03417,-0.307553 0,-0.618892 0,-0.928338 0,-0.4208 0.03417,-1.444712 -0.103151,-1.856676 -0.111942,-0.335828 -0.378372,-0.602085 -0.515741,-0.928338 -0.139301,-0.330838 -0.142883,-0.713502 -0.309447,-1.031487 -0.288387,-0.550557 -1.237697,-1.681708 -1.753528,-2.062973 -1.380583,-1.020431 -1.15597,-0.654783 -2.475569,-1.134636 -0.0457,-0.01662 -0.05736,-0.119503 -0.103148,-0.103149 -1.688848,0.603161 -3.302841,1.767134 -4.744839,2.785015 -0.522499,0.368822 -1.043575,0.74047 -1.54723,1.134635 -0.648891,0.507828 -1.134636,0.873582 -1.134636,1.753528"
       transform="matrix(2.8506625,0,0,3.1079082,-3.6792466,-15.124254)" />
    <path
       style="fill:#71c837;fill-opacity:1;stroke:#000000;stroke-width:0.462;stroke-opacity:0"
       d="m 41.775215,39.196499 c 0.01547,-0.839439 0.154975,-1.676489 0.412594,-2.475569 0.197665,-0.613117 0.466646,-1.214357 0.515745,-1.856676 0.02383,-0.311729 -0.0037,-0.634521 0.103147,-0.928338 0.06877,-0.189121 0.189366,-0.354263 0.309447,-0.515745 0.307754,-0.413861 0.622397,-0.82258 0.928338,-1.237784 0.232646,-0.315732 0.460771,-0.63585 0.72204,-0.928338 0.356408,-0.398994 0.770784,-0.742417 1.134636,-1.134634 0.198758,-0.214254 0.384231,-0.444698 0.618892,-0.618892 0.387213,-0.287437 0.87339,-0.397603 1.340933,-0.515745 0.348204,-0.08799 0.694851,-0.184295 1.031488,-0.309446 0.306248,-0.113853 0.606656,-0.25225 0.928338,-0.309446 0.374365,-0.06656 0.763523,-0.02034 1.134634,-0.103148 0.138413,-0.03088 0.272772,-0.07944 0.412594,-0.103147 0.236749,-0.04013 0.482329,-0.007 0.709239,0.07156 0.226911,0.07856 0.436419,0.201291 0.631696,0.341033 0.202025,0.14457 0.392872,0.309494 0.618892,0.412594 0.385459,0.175828 0.842142,0.151526 1.237785,0 0.153474,-0.05878 0.299461,-0.135466 0.451368,-0.198185 0.151907,-0.06272 0.312626,-0.111846 0.47697,-0.111261 0.03439,1.22e-4 0.06884,0.0024 0.103148,0 0.069,-0.0049 0.135855,-0.02893 0.195451,-0.06405 0.0596,-0.03512 0.11225,-0.08109 0.159787,-0.131342 0.09507,-0.100507 0.170307,-0.218234 0.263654,-0.320346 0.200251,-0.219054 0.472414,-0.355208 0.72204,-0.515745 0.595293,-0.382839 1.075879,-0.916097 1.54723,-1.444081 0.114821,-0.128617 0.230826,-0.259151 0.309446,-0.412595 0.08886,-0.173436 0.126251,-0.370894 0.121372,-0.565709 -0.0049,-0.194814 -0.05097,-0.387212 -0.121372,-0.568927 -0.04542,-0.117227 -0.104807,-0.235253 -0.206298,-0.309446 -0.072,-0.05264 -0.160249,-0.07913 -0.248626,-0.09113 -0.08838,-0.012 -0.177943,-0.01039 -0.267116,-0.01202 -0.736539,-0.01348 -1.448123,-0.247828 -2.166122,-0.412595 -1.09103,-0.250371 -2.270406,-0.334351 -3.300759,0.103149 -0.241203,0.102418 -0.471587,0.232364 -0.72204,0.309446 -0.331649,0.102071 -0.684509,0.107291 -1.031486,0.103148 -0.504905,-0.006 -1.01256,-0.02993 -1.512662,0.03981 -0.500102,0.06974 -1.000178,0.241302 -1.375501,0.579085 -0.07231,0.06507 -0.139365,0.13571 -0.206298,0.206298 -0.100401,0.105883 -0.200852,0.211983 -0.309446,0.309446 -0.163879,0.147081 -0.345097,0.273424 -0.515745,0.412595 -0.452498,0.369033 -0.825838,0.823972 -1.237784,1.237783 -0.274506,0.275748 -0.567033,0.534078 -0.825188,0.82519 -0.608044,0.68567 -1.005848,1.529835 -1.54723,2.269271 -0.192387,0.262768 -0.406359,0.518442 -0.515745,0.82519 -0.03653,0.10245 -0.0608,0.209257 -0.103147,0.309446 -0.115496,0.27327 -0.353695,0.473533 -0.515745,0.72204 -0.167291,0.256545 -0.249591,0.558611 -0.310969,0.858668 -0.06138,0.300057 -0.104755,0.605382 -0.204772,0.894861 -0.06048,0.175032 -0.141065,0.342428 -0.206299,0.515742 -0.16184,0.429977 -0.226745,0.889013 -0.309446,1.340934 -0.03771,0.206073 -0.07942,0.412235 -0.09078,0.621423 -0.01136,0.209187 0.0089,0.423545 0.09078,0.616359 0.09606,0.226097 0.270948,0.409655 0.458871,0.567873 0.187923,0.158218 0.392464,0.296602 0.572615,0.463616 0.02956,0.02741 0.05879,0.056 0.07948,0.0906 0.02069,0.0346 0.03223,0.0763 0.02367,0.115695 -0.0039,0.01789 -0.01176,0.03481 -0.01467,0.05288 -0.0015,0.009 -0.0016,0.01839 5.71e-4,0.02727 0.0022,0.0089 0.0069,0.01729 0.0141,0.023 0.0069,0.0055 0.01575,0.0082 0.02456,0.0089 0.0088,6.69e-4 0.01767,-6.05e-4 0.02632,-0.0024 0.0087,-0.0018 0.01719,-0.0042 0.02589,-0.0057 0.0087,-0.0015 0.01766,-0.0023 0.02638,-7.65e-4 0.01,0.0017 0.01934,0.0063 0.02707,0.01282 0.0077,0.0065 0.0138,0.01489 0.01797,0.02409 0.0084,0.01839 0.009,0.03961 0.0049,0.0594 -0.0081,0.03958 -0.03351,0.07309 -0.04998,0.109984 -0.02524,0.05654 -0.02911,0.120683 -0.02212,0.182204 0.007,0.06152 0.02432,0.121314 0.0401,0.18119 0.01577,0.05987 0.03012,0.120759 0.03093,0.182672 8.05e-4,0.06191 -0.01291,0.125596 -0.0489,0.175977 -0.02832,0.03964 -0.06855,0.06885 -0.103148,0.103148 -0.05583,0.05535 -0.09824,0.127837 -0.103151,0.206298 -0.0021,0.03433 0.0029,0.06887 0,0.103148 -0.0044,0.05268 -0.02798,0.103557 -0.06536,0.140939 -0.03738,0.03738 -0.08826,0.06097 -0.140938,0.06536"
       id="path5"
       inkscape:path-effect="#path-effect5"
       inkscape:original-d="m 41.775215,39.196499 c 0.177713,-0.817478 0.234882,-1.658091 0.412594,-2.475569 0.136451,-0.627665 0.39737,-1.225351 0.515745,-1.856676 0.05738,-0.306017 0.01762,-0.628968 0.103147,-0.928338 0.05508,-0.19277 0.206299,-0.343829 0.309447,-0.515745 0.542237,-0.903724 0.06877,-0.179856 0.928338,-1.237784 0.247208,-0.304255 0.45979,-0.636947 0.72204,-0.928338 0.357812,-0.397566 0.756425,-0.756423 1.134636,-1.134634 0.206299,-0.206298 0.366406,-0.472715 0.618892,-0.618892 0.414452,-0.239946 0.888614,-0.358415 1.340933,-0.515745 0.339045,-0.117927 0.689181,-0.201348 1.031488,-0.309446 0.311044,-0.09822 0.611892,-0.230333 0.928338,-0.309446 1.281756,-0.320439 0.239311,0.0088 1.134634,-0.103148 0.140671,-0.01759 0.272759,-0.07984 0.412594,-0.103147 0.532662,-0.08878 0.929069,0.0831 1.340935,0.412593 0.195781,0.156626 0.358831,0.347581 0.618892,0.412594 0.126759,0.03169 1.140233,0.02252 1.237785,0 0.31783,-0.07334 0.615907,-0.215717 0.928338,-0.309446 0.03293,-0.0099 0.07517,0.01998 0.103148,0 0.218519,-0.156085 0.40604,-0.352012 0.618892,-0.515741 0.234436,-0.180338 0.481359,-0.343829 0.72204,-0.515745 0.715433,-0.511024 1.026861,-0.750258 1.54723,-1.444081 0.103148,-0.137532 0.255082,-0.249503 0.309446,-0.412595 0.0074,-0.02225 0.03075,-1.057761 0,-1.134636 -0.04604,-0.115102 -0.09866,-0.24794 -0.206298,-0.309446 -0.152218,-0.08698 -0.348403,-0.05086 -0.515742,-0.103148 -1.696307,-0.530096 -0.528394,-0.412595 -2.166122,-0.412595 -0.970643,0 -2.368442,-0.11622 -3.300759,0.103149 -0.254892,0.05997 -0.467149,0.249471 -0.72204,0.309446 -0.336357,0.07914 -0.687499,0.07039 -1.031486,0.103148 -0.988307,0.09412 -1.996552,0.123553 -2.888163,0.618892 -0.08501,0.04723 -0.137533,0.137532 -0.206298,0.206298 -0.103148,0.103148 -0.199665,0.213387 -0.309446,0.309446 -0.165685,0.144975 -0.352103,0.265317 -0.515745,0.412595 -0.43371,0.390339 -0.825187,0.825189 -1.237784,1.237783 -0.275061,0.275063 -0.56782,0.533506 -0.825188,0.82519 -0.744516,0.843786 -0.917866,1.262285 -1.54723,2.269271 -0.204563,0.3273 -0.32517,0.444042 -0.515745,0.82519 -0.04862,0.09725 -0.0492,0.215043 -0.103147,0.309446 -0.0762,0.133345 -0.435923,0.542441 -0.515745,0.72204 -0.24752,0.556924 -0.324149,1.178751 -0.515741,1.753529 -0.05855,0.175654 -0.147746,0.340087 -0.206299,0.515742 -0.138742,0.416231 -0.270057,0.907663 -0.309446,1.340934 -0.01569,0.172506 -0.05177,1.082485 0,1.237782 0.04821,0.14464 0.87221,0.819118 1.031486,1.031489 0.04613,0.06151 0.07884,0.13336 0.103151,0.206295 0.01087,0.03262 -0.02432,0.07884 0,0.103151 0.02432,0.02432 0.07884,-0.02432 0.103148,0 0.04862,0.04863 0,0.13753 0,0.206295 0,0.115404 0.03869,0.605965 0,0.722043 -0.01537,0.04613 -0.07618,0.06269 -0.103148,0.103148 -0.04265,0.06397 -0.07884,0.13336 -0.103151,0.206298 -0.01087,0.03262 0.01908,0.07454 0,0.103148 -0.05394,0.08092 -0.13753,0.13753 -0.206295,0.206298"
       transform="matrix(2.8506625,0,0,3.1079082,-3.6792466,-15.124254)" />
    <path
       style="fill:#71c837;fill-opacity:1;stroke:#000000;stroke-width:0.462;stroke-opacity:0"
       d="m 38.510805,38.510805 v -6.272594 c 0,-0.292143 -0.0082,-0.584208 -0.02142,-0.87605 -0.01326,-0.291842 -0.02738,-0.586403 0.02142,-0.874441 0.04146,-0.244717 0.1294,-0.481714 0.145875,-0.729371 0.01292,-0.194205 -0.0186,-0.389754 0,-0.583497 0.0295,-0.307303 0.181698,-0.586812 0.291748,-0.875247 0.106393,-0.278852 0.17518,-0.578227 0.145873,-0.875244 -0.0072,-0.07335 -0.0204,-0.14609 -0.02516,-0.21964 -0.0048,-0.07355 -7.89e-4,-0.148999 0.02516,-0.217983 0.03107,-0.0826 0.09123,-0.15034 0.149183,-0.216901 0.05795,-0.06656 0.116341,-0.136453 0.142568,-0.22072 0.0218,-0.07004 0.01974,-0.145162 0.0131,-0.218214 -0.0066,-0.07305 -0.01767,-0.146199 -0.0131,-0.21941 0.0069,-0.110113 0.04893,-0.215519 0.104031,-0.311102 0.0551,-0.09558 0.12326,-0.182855 0.187717,-0.272395 0.347544,-0.482787 0.59571,-1.042934 1.02112,-1.458743 0.09844,-0.09622 0.205901,-0.184143 0.291748,-0.291748 0.109432,-0.137168 0.180299,-0.302089 0.291748,-0.437623 0.0874,-0.106292 0.197373,-0.191595 0.291748,-0.291749 0.258158,-0.273967 0.387937,-0.647978 0.437623,-1.021119 0.08993,-0.675358 0,-1.360921 0,-2.04224 V 17.79666 c 0,-0.291765 0.0099,-0.58365 0,-0.875246 -0.02672,-0.784083 -0.244156,-1.550895 -0.291748,-2.333988 -0.0354,-0.582525 0,-1.166891 0,-1.750491 V 8.0230844 c 0,-0.074243 -0.0075,-0.148229 -0.01952,-0.2214916 -0.006,-0.036631 -0.01179,-0.073552 -0.01089,-0.1106631 9.01e-4,-0.037111 0.0091,-0.075063 0.03041,-0.105468 0.01994,-0.02847 0.04969,-0.048186 0.07757,-0.068936 0.02789,-0.02075 0.0556,-0.04458 0.0683,-0.076938 0.009,-0.022859 0.0096,-0.048146 0.0076,-0.07262 -0.002,-0.024473 -0.0066,-0.048721 -0.0076,-0.073255 -0.0021,-0.049347 0.01,-0.098037 0.01652,-0.1469952 0.0033,-0.024479 0.0052,-0.049262 0.0032,-0.073878 -0.002,-0.024616 -0.008,-0.04914 -0.01969,-0.070875 -0.01325,-0.024557 -0.03352,-0.044897 -0.05658,-0.060613 -0.02306,-0.015717 -0.04888,-0.026997 -0.0753,-0.035981 -0.05284,-0.017968 -0.108656,-0.027119 -0.159874,-0.04928 -0.05034,-0.021783 -0.09449,-0.05536 -0.140635,-0.085012 -0.04615,-0.029652 -0.09646,-0.056133 -0.151113,-0.060862 -0.04855,-0.0042 -0.09798,0.00905 -0.145873,0 -0.03455,-0.00652 -0.06623,-0.024471 -0.09282,-0.047467 -0.02659,-0.022996 -0.04845,-0.050948 -0.06845,-0.079867 -0.03999,-0.057837 -0.07457,-0.1217805 -0.130483,-0.164415 -0.03874,-0.029538 -0.08591,-0.047012 -0.134119,-0.053995 -0.04821,-0.00698 -0.09751,-0.00379 -0.14539,0.00521 -0.09576,0.017986 -0.185537,0.058597 -0.278315,0.088348 -0.09278,0.02975 -0.193466,0.048592 -0.287169,0.021896 -0.04685,-0.013348 -0.09091,-0.038317 -0.123474,-0.074548 -0.03256,-0.036232 -0.053,-0.084066 -0.05265,-0.1327806 1.74e-4,-0.024622 0.0055,-0.048888 0.0081,-0.073373 0.0026,-0.024485 0.0023,-0.050173 -0.0081,-0.072501 -0.01139,-0.024507 -0.03428,-0.042619 -0.0598,-0.051503 -0.02552,-0.00888 -0.05347,-0.00915 -0.08007,-0.00439 -0.05321,0.00952 -0.100841,0.038088 -0.151876,0.055892 -0.07008,0.024448 -0.145981,0.028267 -0.219929,0.02186 -0.07395,-0.00641 -0.14662,-0.022722 -0.219322,-0.03768 -0.0727,-0.014959 -0.146123,-0.028645 -0.220342,-0.029673 -0.07422,-0.00103 -0.149842,0.011165 -0.215652,0.045493 -0.06192,0.032301 -0.113574,0.083952 -0.145875,0.1458741 -0.09852,0.046031 -0.195813,0.094678 -0.291748,0.1458743 -0.06875,0.036688 -0.137035,0.074794 -0.209603,0.10319 -0.07257,0.028396 -0.150213,0.046952 -0.228021,0.042684 -0.02443,-0.00134 -0.0487,-0.00491 -0.07313,-0.00636 -0.02443,-0.00145 -0.04932,-7.144e-4 -0.07274,0.00636 -0.02761,0.00834 -0.05237,0.025498 -0.07049,0.047946 -0.01811,0.022447 -0.0296,0.050051 -0.03352,0.078627 -0.0039,0.028576 -3.54e-4,0.058054 0.0095,0.085146 0.0099,0.027092 0.02605,0.051788 0.04636,0.072269 0.04062,0.040963 0.09718,0.064241 0.154602,0.069737 0.05743,0.0055 0.115639,-0.00594 0.169309,-0.027095 0.10734,-0.042304 0.195322,-0.1211084 0.287381,-0.1906532 0.04603,-0.034772 0.09383,-0.067671 0.145832,-0.092643 0.052,-0.024972 0.108546,-0.041889 0.166216,-0.043333 0.05518,-0.00138 0.110101,0.01144 0.161238,0.032219 0.05114,0.020778 0.09875,0.04938 0.144422,0.08038 0.09134,0.061999 0.176824,0.1346104 0.277836,0.1791502 0.113981,0.050258 0.240679,0.061702 0.36477,0.072613 0.12409,0.010911 0.250803,0.022593 0.364602,0.073262 0.100926,0.044937 0.186101,0.1180785 0.277402,0.1802834 0.04565,0.031103 0.09332,0.059729 0.144561,0.080354 0.05124,0.020625 0.106332,0.033105 0.161535,0.031111 0.02446,-8.835e-4 0.04873,-0.00458 0.07315,-0.00621 0.02442,-0.00163 0.04937,-0.00111 0.07273,0.00621 0.03344,0.010479 0.06128,0.034213 0.08393,0.060962 0.02265,0.026749 0.04096,0.056844 0.06195,0.084913 0.08248,0.1103073 0.203492,0.1860046 0.291748,0.2917484 0.129141,0.15473 0.178207,0.3625623 0.184697,0.563999 0.0065,0.2014367 -0.02539,0.4019022 -0.03882,0.6029952 -0.02291,0.3428663 0.0078,0.6868178 0.0105,1.0304381 0.0027,0.3436199 -0.02447,0.6944959 -0.156374,1.0118019 -0.04176,0.10045 -0.09356,0.196373 -0.145876,0.291748 -0.201693,0.367662 -0.418019,0.748101 -0.437621,1.166994 -0.0068,0.145772 0.01073,0.292086 0,0.437623 -0.01478,0.200498 -0.08253,0.392695 -0.145875,0.583497 -0.316047,0.952015 -0.535518,1.93329 -0.729371,2.917485 -0.07758,0.393877 -0.151754,0.790751 -0.291749,1.166994 -0.09134,0.245478 -0.210126,0.480495 -0.291748,0.729372 -0.202674,0.617982 -0.170718,1.303288 -0.437623,1.896365 -0.08928,0.198385 -0.210268,0.381783 -0.291748,0.583497 -0.16821,0.416426 -0.158288,0.884041 -0.291748,1.312869 -0.06895,0.221539 -0.175111,0.429312 -0.265915,0.642825 -0.0908,0.213514 -0.167345,0.438064 -0.171709,0.670043 -0.0018,0.09728 0.0091,0.19487 0,0.291748 -0.0174,0.185564 -0.106563,0.356015 -0.199808,0.517391 -0.09325,0.161376 -0.193732,0.322639 -0.237815,0.503729 -0.0404,0.165978 -0.03111,0.339679 -0.01617,0.509849 0.01494,0.170171 0.03527,0.341517 0.01617,0.511271 -0.01732,0.153927 -0.06737,0.304091 -0.145873,0.437623 -0.07556,0.434068 -0.124307,0.872801 -0.145875,1.312868 -0.03809,0.77718 0.0086,1.555922 0,2.333988 -0.007,0.632375 -0.05036,1.265961 0,1.896366 0.04279,0.535744 0.153178,1.067215 0.145875,1.604616 -0.0013,0.09727 -0.0065,0.194683 0,0.291748 0.02688,0.401114 0.249912,0.767164 0.291748,1.166995 0.02531,0.24193 0,0.486121 0,0.729372 v 1.604616 c 0,0.0974 -0.0029,0.194768 -0.0076,0.292054 -0.0047,0.09728 -0.0097,0.195597 0.0076,0.291445 0.02339,0.12948 0.08742,0.247442 0.14944,0.363483 0.06202,0.116042 0.123898,0.235608 0.142308,0.365888 0.01715,0.121338 -0.0045,0.244291 -0.01957,0.365902 -0.01508,0.121612 -0.02304,0.248573 0.01957,0.363467 0.0306,0.08251 0.08543,0.153489 0.140916,0.221789 0.05549,0.0683 0.1131,0.136334 0.150832,0.215835 0.04315,0.09092 0.05815,0.192233 0.07271,0.291816 0.01457,0.09958 0.02973,0.200893 0.07316,0.29168 0.03799,0.0794 0.09592,0.147192 0.151525,0.215424 0.0556,0.06823 0.110366,0.139398 0.140223,0.222199 0.03551,0.09846 0.03308,0.20805 0.0058,0.309102 -0.02729,0.101052 -0.07832,0.19434 -0.137941,0.280372 -0.119242,0.172064 -0.274478,0.319558 -0.372618,0.504472 -0.04907,0.09246 -0.08316,0.194471 -0.08605,0.299102 -0.0029,0.104632 0.02737,0.212073 0.09483,0.292106 0.03373,0.04002 0.07637,0.07273 0.124444,0.09341 0.04808,0.02068 0.101586,0.02913 0.153513,0.0226 0.05193,-0.0065 0.102092,-0.02822 0.141332,-0.06285 0.03924,-0.03463 0.06719,-0.08223 0.0767,-0.133692 0.0089,-0.04794 0.002,-0.09716 0,-0.145876 -0.0062,-0.155166 0.03832,-0.308276 0.09795,-0.451662 0.05963,-0.143385 0.134582,-0.280024 0.193797,-0.423582 0.209254,-0.507302 0.209254,-1.097316 0,-1.604618"
       id="path6"
       inkscape:path-effect="#path-effect6"
       inkscape:original-d="m 38.510805,38.510805 c 0,-2.090865 0,-4.181729 0,-6.272594 0,-0.583496 -0.05283,-1.169389 0,-1.750491 0.02244,-0.24692 0.118493,-0.482949 0.145875,-0.729371 0.02148,-0.19331 -0.02751,-0.390951 0,-0.583497 0.04349,-0.30444 0.225036,-0.57504 0.291748,-0.875247 0.06416,-0.288729 0.11321,-0.581281 0.145873,-0.875244 0.01611,-0.144981 -0.04613,-0.299233 0,-0.437623 0.05544,-0.166323 0.23631,-0.271301 0.291751,-0.437621 0.04613,-0.13839 -0.04008,-0.297362 0,-0.437624 0.05974,-0.20909 0.174156,-0.400577 0.291748,-0.583497 0.320961,-0.499274 0.664996,-0.98391 1.02112,-1.458743 0.08252,-0.110025 0.205832,-0.184354 0.291748,-0.291748 0.109521,-0.136902 0.182226,-0.300722 0.291748,-0.437623 0.08591,-0.107394 0.20923,-0.181723 0.291748,-0.291749 0.222189,-0.296252 0.347808,-0.661861 0.437623,-1.021119 0.06604,-0.264171 0,-1.872887 0,-2.04224 0,-0.729372 0,-1.458743 0,-2.188114 0,-0.291749 0.02641,-0.584695 0,-0.875246 -0.07099,-0.78083 -0.209669,-1.554245 -0.291748,-2.333988 -0.06007,-0.5707 0,-1.176304 0,-1.750491 0,-1.604617 0,-3.2092337 0,-4.8138506 0,-0.098047 -0.04304,-0.3515331 0,-0.4376227 0.03075,-0.061506 0.11512,-0.084369 0.145873,-0.1458743 0.02175,-0.043491 0,-0.097249 0,-0.1458743 0,-0.097249 0.05395,-0.2108322 0,-0.2917486 -0.06031,-0.090467 -0.194498,-0.097249 -0.291748,-0.1458741 -0.09725,-0.048625 -0.1886,-0.1114914 -0.291748,-0.1458743 -0.04613,-0.015378 -0.105416,0.026972 -0.145873,0 -0.114435,-0.076289 -0.168738,-0.2302425 -0.291751,-0.2917486 -0.395711,-0.1978562 -0.848373,-0.059501 -1.021119,-0.1458743 -0.04349,-0.021746 0.03438,-0.1114912 0,-0.1458741 -0.06877,-0.068766 -0.194498,0 -0.291748,0 -0.137518,0 -0.71967,-0.077789 -0.875245,0 -0.06151,0.030753 -0.09725,0.09725 -0.145875,0.1458741 -0.09725,0.048625 -0.190797,0.1054936 -0.291748,0.1458743 -0.142767,0.057107 -0.288449,0.1085807 -0.437624,0.1458743 -0.04717,0.011792 -0.145872,-0.048625 -0.145872,0 0,0.00666 0.842097,-0.011049 0.875244,0 0.206298,0.068766 0.3772,0.2229826 0.583496,0.2917486 0.235217,0.078405 0.494157,0.067469 0.729372,0.1458741 0.206298,0.068766 0.381595,0.2109872 0.583498,0.2917486 0.04515,0.018058 0.102384,-0.021746 0.145873,0 0.06151,0.030753 0.09725,0.09725 0.145876,0.1458743 0.09725,0.09725 0.220987,0.1738162 0.291748,0.2917484 0.211547,0.3525795 0.145875,0.7804388 0.145875,1.1669942 0,0.6942855 0.04788,1.364108 -0.145875,2.04224 -0.02987,0.104544 -0.105495,0.190797 -0.145876,0.291748 -0.08984,0.224611 -0.401521,0.950392 -0.437621,1.166994 -0.02397,0.14389 0.02064,0.293215 0,0.437623 -0.02835,0.19847 -0.102383,0.387786 -0.145875,0.583497 -0.217649,0.979415 -0.485875,1.943502 -0.729371,2.917485 -0.09725,0.388998 -0.16495,0.786601 -0.291749,1.166994 -0.0828,0.248415 -0.208944,0.480957 -0.291748,0.729372 -0.204327,0.612983 -0.234921,1.28826 -0.437623,1.896365 -0.06876,0.206298 -0.215395,0.379886 -0.291748,0.583497 -0.168363,0.448966 -0.153112,0.850749 -0.291748,1.312869 -0.275543,0.91847 -0.297659,0.473075 -0.437624,1.312868 -0.01598,0.09593 0.03075,0.199489 0,0.291748 -0.117104,0.351312 -0.320519,0.669809 -0.437623,1.02112 -0.0959,0.287692 0.04919,0.72597 0,1.02112 -0.02527,0.151673 -0.09725,0.291749 -0.145873,0.437623 -0.04862,0.437624 -0.116586,0.873528 -0.145875,1.312868 -0.05116,0.767429 0,1.564145 0,2.333988 0,0.627223 -0.04467,1.270957 0,1.896366 0.03827,0.535713 0.104682,1.069121 0.145875,1.604616 0.0075,0.09696 -0.01598,0.195823 0,0.291748 0.06592,0.395515 0.235043,0.770054 0.291748,1.166995 0.03438,0.240681 0,0.486249 0,0.729372 0,0.534871 0,1.069745 0,1.604616 0,0.1945 -0.02751,0.390953 0,0.583499 0.07588,0.531206 0.15091,0.306853 0.291748,0.729371 0.07098,0.212931 -0.09825,0.532876 0,0.729369 0.333804,0.66761 -0.06046,-0.619003 0.291748,0.437624 0.0634,0.190198 0.0669,0.399221 0.145876,0.583496 0.06906,0.161144 0.226636,0.274844 0.291748,0.437623 0.06898,0.172445 0,1.417738 0,1.604619 0,0.04862 -0.0118,-0.0987 0,-0.145876 0.07459,-0.298346 0.257786,-0.569597 0.291748,-0.875244 0.0571,-0.513882 0,-1.080093 0,-1.604618"
       transform="matrix(2.8506625,0,0,3.1079082,-3.6792466,-15.124254)" />
    <path
       style="fill:#6e6d50;fill-opacity:1;stroke:#000000;stroke-width:1.37513;stroke-opacity:0"
       d="m 64.538516,93.871805 c 0,0 31.756545,10.899615 42.342054,10.258455 10.58551,-0.64116 28.22803,-1.28231 37.63738,-4.488081 9.40935,-3.205764 -1.17617,0.641151 -1.17617,0.641151 l 4.11659,-1.923455 c 0,0 -0.58807,82.708785 -12.93784,87.196845 -12.34978,4.48807 -24.99358,5.4498 -24.99358,5.4498 0,0 -19.70082,2.24405 -34.991008,-6.09094 -15.290186,-8.33499 -15.87827,-94.570117 -15.87827,-94.570117 z"
       id="path1" />
  </g>
</svg>
